PathFileType	4	(x/y/z)	S06_PSF_T08
DataRate	CameraRate	NumFrames	NumMarkers	Units	OrigDataRate	OrigDataStartFrame	OrigNumFrames
240	240	10	51	mm	240	255	407
Frame#	Time	Sternum			R.Acromium			L.Acromium			Top.Head			R.ASIS			L.ASIS			R.PSIS			L.PSIS			R.Great.Tro			L.Great.Tro			R.Iliac.Crest			L.Iliac.Crest			V.Sacral			R.Thigh.Upper.Post			R.Thigh.Lower.Ant			R.Thigh.Lower.Post			R.Thigh.Upper.Ant			R.Knee.Lat			R.Knee.Med			R.Shank.Upper.Post			R.Shank.Lower.Ant			R.Shank.Lower.Post			R.Shank.Upper.Ant			R.Ankle.Lat			R.Ankle.Med			R.Heel.Upper			R.Heel.Med			R.Heel.Lat			R.Toe.Lat			R.Toe.Med			R.Toe.Tip			L.Thigh.Upper.Post			L.Thigh.Lower.Ant			L.Thigh.Lower.Post			L.Thigh.Upper.Ant			L.Knee.Lat			L.Knee.Med			L.Shank.Upper.Post			L.Shank.Lower.Ant			L.Shank.Lower.Post			L.Shank.Upper.Ant			L.Ankle.Lat			L.Ankle.Med			L.Heel.Upper			L.Heel.Med			L.Heel.Lat			L.Toe.Lat			L.Toe.Med			L.Toe.Tip			Cervical.Spine			Back			
		X1	Y1	Z1	X2	Y2	Z2	X3	Y3	Z3	X4	Y4	Z4	X5	Y5	Z5	X6	Y6	Z6	X7	Y7	Z7	X8	Y8	Z8	X9	Y9	Z9	X10	Y10	Z10	X11	Y11	Z11	X12	Y12	Z12	X13	Y13	Z13	X14	Y14	Z14	X15	Y15	Z15	X16	Y16	Z16	X17	Y17	Z17	X18	Y18	Z18	X19	Y19	Z19	X20	Y20	Z20	X21	Y21	Z21	X22	Y22	Z22	X23	Y23	Z23	X24	Y24	Z24	X25	Y25	Z25	X26	Y26	Z26	X27	Y27	Z27	X28	Y28	Z28	X29	Y29	Z29	X30	Y30	Z30	X31	Y31	Z31	X32	Y32	Z32	X33	Y33	Z33	X34	Y34	Z34	X35	Y35	Z35	X36	Y36	Z36	X37	Y37	Z37	X38	Y38	Z38	X39	Y39	Z39	X40	Y40	Z40	X41	Y41	Z41	X42	Y42	Z42	X43	Y43	Z43	X44	Y44	Z44	X45	Y45	Z45	X46	Y46	Z46	X47	Y47	Z47	X48	Y48	Z48	X49	Y49	Z49	X50	Y50	Z50	X51	Y51	Z51	

255	1.0583	-90.357	1272	338.15	-208.21	1478.8	510.43	-229.88	1477.3	157.8	-188.45	1795.6	332.53	-144.3	1036.3	470.69	-131.36	1033	217.65	NaN	NaN	NaN	-337.84	1058.4	289.72	-214.64	967.13	519.56	-222.33	954.23	160.98	-225.31	1115.1	496.49	-202.42	1104.7	178.97	-351.45	1023.7	333.92	-275.26	726.08	496.25	-240.49	636.85	458.64	-307.45	645.85	473.66	-203.19	718.17	480.5	-323.29	532.73	453.48	-315.67	542.78	325.26	-439.69	328.8	440.22	-404.12	250.16	413.98	-468.25	259.14	421.23	-374.93	319.41	433.68	-482.86	125.81	387.7	-467.15	135.99	303.84	-558.05	94.078	337.83	-552.25	61.353	308.51	-554.93	62.718	373.18	-381.32	37.1	420.78	-351.33	38.816	299.63	-285.7	45.517	348.58	-85.508	717.95	180.65	-20.363	658.51	246.75	-77.577	629.03	200.33	-37.862	749.85	225.08	-61.584	540.26	221.02	-40.333	553.64	343.9	-16.476	314.39	232.3	67.468	284.03	226.66	9.728	246.92	248.86	38.84	348.69	216.75	115.8	133.33	241.82	122.17	163.24	329.42	68.119	61.863	292.71	90.544	42.77	327.42	89.713	38.283	265.6	248.14	118.11	218.61	262.44	144.23	333.23	314.93	189.58	274.84	-274.21	1531.8	337.54	-331.98	1258.8	339.94
256	1.0625	-84.724	1271.2	337.89	-202.54	1478.1	510.23	-224.39	1476.5	157.58	-183.05	1795	332.23	-138.67	1035.6	470.54	-125.77	1032.2	217.41	NaN	NaN	NaN	-332.26	1057.6	289.49	-209.17	966.57	519.38	-216.69	953.42	160.83	-219.65	1114.4	496.26	-196.84	1103.8	178.72	-345.86	1023	333.7	-270.25	725.7	496.2	-235.62	636.38	458.71	-302.58	645.52	473.64	-198.21	717.65	480.53	-318.75	532.4	453.5	-310.87	542.36	325.3	-436.86	329.4	440.32	-402.02	250.46	414.08	-466.05	260.04	421.39	-372.18	319.44	433.74	-481.95	126.82	387.82	-466.38	136.93	303.93	-557.42	95.624	338.01	-551.89	62.917	308.62	-554.51	64.181	373.29	-381.15	37.121	420.8	-351.16	38.858	299.64	-285.55	45.296	348.63	-80.174	717.09	181.04	-15.036	657.77	247.24	-72.338	628.22	200.98	-32.408	749.05	225.27	-56.251	539.53	221.68	-35.107	553.1	344.55	-10.981	313.64	233.07	72.991	283.35	227.68	15.223	246.21	249.73	44.347	347.97	217.67	121.39	132.78	242.92	127.53	162.71	330.55	73.731	61.48	293.68	96.016	42.371	328.44	95.4	37.908	266.62	253.91	117.67	220.05	267.73	143.96	334.73	320.37	189.29	276.46	-268.63	1531.2	337.34	-326.37	1258	339.76
257	1.0667	-79.081	1270.5	337.62	-196.86	1477.4	510.01	-218.9	1475.8	157.35	-177.64	1794.4	331.93	-133.02	1034.9	470.39	-120.14	1031.4	217.17	NaN	NaN	NaN	-326.65	1056.9	289.28	-203.68	966.04	519.2	-211.03	952.64	160.68	-213.97	1113.8	496.03	-191.23	1103	178.46	-340.25	1022.2	333.49	-265.17	725.34	496.16	-230.65	635.92	458.8	-297.61	645.18	473.62	-193.16	717.16	480.58	-314.08	532.07	453.54	-305.92	541.93	325.36	-433.92	330.04	440.43	-399.84	250.8	414.19	-463.77	260.99	421.56	-369.34	319.5	433.81	-480.99	127.91	387.96	-465.54	137.93	304.03	-556.74	97.273	338.2	-551.49	64.59	308.75	-554.06	65.746	373.4	-380.96	37.145	420.83	-350.97	38.907	299.65	-285.4	45.079	348.69	-74.753	716.3	181.43	-9.5938	657.09	247.72	-66.992	627.48	201.62	-26.845	748.33	225.45	-50.82	538.85	222.32	-29.738	552.62	345.14	-5.7104	312.9	233.86	78.237	282.54	228.68	20.398	245.47	250.62	49.673	347.17	218.59	126.47	132.08	244.03	132.46	162	331.67	78.76	61.104	294.68	100.83	41.934	329.48	100.4	37.513	267.65	259.13	116.85	221.45	272.54	143.27	336.19	325.4	188.46	278.01	-263.05	1530.5	337.13	-320.75	1257.3	339.58
258	1.0708	-73.427	1269.8	337.33	-191.18	1476.8	509.78	-213.41	1475.1	157.1	-172.22	1793.8	331.62	-127.34	1034.3	470.23	-114.48	1030.6	216.93	NaN	NaN	NaN	-321.01	1056.2	289.06	-198.17	965.55	519.02	-205.34	951.89	160.55	-208.27	1113.2	495.81	-185.6	1102.2	178.2	-334.61	1021.6	333.29	-260.01	724.99	496.12	-225.57	635.48	458.92	-292.54	644.85	473.6	-188.04	716.71	480.64	-309.27	531.74	453.6	-300.81	541.48	325.44	-430.89	330.73	440.55	-397.58	251.17	414.32	-461.4	262	421.74	-366.42	319.58	433.88	-479.98	129.06	388.11	-464.63	138.99	304.15	-555.99	99.03	338.4	-551.04	66.377	308.87	-553.55	67.419	373.52	-380.75	37.174	420.86	-350.77	38.964	299.67	-285.24	44.866	348.74	-69.249	715.58	181.83	-4.0462	656.48	248.17	-61.548	626.8	202.24	-21.182	747.67	225.62	-45.307	538.22	222.94	-24.232	552.21	345.67	-0.65394	312.15	234.67	83.219	281.62	229.68	25.268	244.71	251.54	54.821	346.29	219.49	131.08	131.24	245.13	136.98	161.14	332.8	83.239	60.745	295.7	105.03	41.467	330.52	104.76	37.108	268.68	263.84	115.67	222.81	276.92	142.15	337.6	330.06	187.12	279.5	-257.47	1529.9	336.9	-315.11	1256.6	339.39
259	1.075	-67.761	1269.1	337.03	-185.49	1476.2	509.54	-207.91	1474.4	156.85	-166.78	1793.2	331.31	-121.64	1033.8	470.06	-108.78	1029.8	216.69	NaN	NaN	NaN	-315.34	1055.5	288.86	-192.63	965.11	518.82	-199.64	951.16	160.43	-202.54	1112.6	495.59	-179.93	1101.5	177.93	-328.94	1020.9	333.09	-254.78	724.67	496.08	-220.38	635.06	459.07	-287.37	644.52	473.59	-182.86	716.29	480.71	-304.33	531.42	453.68	-295.54	541.02	325.54	-427.75	331.45	440.69	-395.24	251.59	414.47	-458.94	263.06	421.93	-363.41	319.69	433.98	-478.91	130.28	388.28	-463.64	140.1	304.29	-555.17	100.9	338.61	-550.54	68.282	309	-553	69.203	373.65	-380.53	37.206	420.9	-350.56	39.03	299.68	-285.08	44.657	348.79	-63.669	714.91	182.23	1.5955	655.92	248.61	-56.017	626.18	202.86	-15.424	747.07	225.78	-39.729	537.62	223.53	-18.599	551.85	346.15	4.1996	311.41	235.5	87.954	280.6	230.67	29.854	243.91	252.48	59.802	345.33	220.38	135.26	130.28	246.23	141.14	160.12	333.93	87.208	60.417	296.73	108.65	40.981	331.54	108.52	36.71	269.71	268.06	114.14	224.12	280.89	140.64	338.96	334.37	185.3	280.95	-251.89	1529.3	336.67	-309.46	1256	339.19
260	1.0792	-62.081	1268.5	336.72	-179.8	1475.7	509.28	-202.41	1473.8	156.58	-161.33	1792.7	331	-115.9	1033.2	469.89	-103.04	1029.2	216.45	NaN	NaN	NaN	-309.63	1054.9	288.66	-187.07	964.7	518.63	-193.91	950.47	160.32	-196.78	1112.1	495.37	-174.22	1100.8	177.65	-323.23	1020.3	332.91	-249.47	724.35	496.05	-215.08	634.66	459.25	-282.09	644.19	473.59	-177.6	715.9	480.8	-299.25	531.09	453.78	-290.1	540.54	325.67	-424.51	332.23	440.84	-392.82	252.05	414.63	-456.39	264.17	422.12	-360.31	319.83	434.08	-477.78	131.59	388.45	-462.55	141.28	304.46	-554.29	102.88	338.82	-549.99	70.31	309.13	-552.4	71.103	373.78	-380.3	37.242	420.94	-350.34	39.104	299.69	-284.92	44.455	348.83	-58.021	714.3	182.62	7.3187	655.4	249.02	-50.413	625.61	203.46	-9.5821	746.51	225.93	-34.106	537.05	224.09	-12.853	551.54	346.59	8.8648	310.67	236.35	92.461	279.47	231.66	34.18	243.1	253.44	64.625	344.3	221.26	139.04	129.21	247.33	144.95	158.98	335.05	90.71	60.131	297.75	111.74	40.485	332.54	111.73	36.336	270.71	271.83	112.32	225.39	284.48	138.77	340.29	338.36	183.03	282.34	-246.31	1528.8	336.43	-303.8	1255.4	338.99
261	1.0833	-56.387	1268	336.39	-174.11	1475.2	509.01	-196.91	1473.2	156.31	-155.86	1792.2	330.69	-110.12	1032.8	469.71	-97.255	1028.5	216.22	NaN	NaN	NaN	-303.88	1054.3	288.48	-181.48	964.33	518.43	-188.16	949.81	160.23	-191	1111.6	495.15	-168.47	1100.1	177.37	-317.49	1019.8	332.74	-244.08	724.06	496.03	-209.67	634.28	459.46	-276.7	643.86	473.59	-172.26	715.54	480.9	-294.03	530.76	453.9	-284.5	540.05	325.83	-421.15	333.05	441	-390.31	252.55	414.82	-453.74	265.36	422.32	-357.13	320	434.2	-476.58	132.98	388.64	-461.35	142.52	304.64	-553.31	104.99	339.03	-549.37	72.467	309.26	-551.74	73.124	373.91	-380.06	37.282	420.98	-350.1	39.188	299.71	-284.75	44.259	348.88	-52.317	713.74	183.01	13.109	654.92	249.41	-44.751	625.1	204.04	-3.6652	745.99	226.05	-28.457	536.5	224.63	-7.0114	551.28	346.97	13.359	309.92	237.21	96.764	278.27	232.63	38.273	242.26	254.4	69.303	343.22	222.13	142.48	128.06	248.4	148.46	157.72	336.16	93.793	59.899	298.76	114.35	39.99	333.5	114.43	36	271.67	275.22	110.23	226.61	287.75	136.55	341.58	342.07	180.36	283.7	-240.74	1528.3	336.17	-298.12	1254.8	338.78
262	1.0875	-50.676	1267.5	336.05	-168.42	1474.7	508.72	-191.4	1472.7	156.02	-150.38	1791.8	330.38	-104.31	1032.4	469.52	-91.426	1027.9	215.98	NaN	NaN	NaN	-298.09	1053.8	288.29	-175.85	964.01	518.23	-182.39	949.18	160.15	-185.19	1111.2	494.94	-162.67	1099.5	177.09	-311.71	1019.3	332.58	-238.6	723.77	496.01	-204.14	633.91	459.7	-271.2	643.54	473.61	-166.84	715.22	481.03	-288.67	530.44	454.05	-278.72	539.54	326.01	-417.69	333.92	441.18	-387.71	253.11	415.03	-451	266.6	422.53	-353.85	320.21	434.34	-475.32	134.45	388.85	-460.03	143.83	304.85	-552.25	107.22	339.24	-548.67	74.758	309.39	-551.01	75.27	374.04	-379.8	37.326	421.02	-349.85	39.281	299.72	-284.58	44.071	348.92	-46.567	713.22	183.39	18.951	654.48	249.77	-39.05	624.62	204.61	2.3156	745.51	226.16	-22.8	535.97	225.15	-1.0961	551.06	347.31	17.701	309.18	238.08	100.89	277	233.58	42.164	241.4	255.37	73.852	342.09	222.99	145.62	126.84	249.46	151.7	156.36	337.25	96.508	59.728	299.73	116.53	39.507	334.41	116.7	35.718	272.59	278.24	107.93	227.79	290.72	134.03	342.82	345.53	177.33	285.03	-235.16	1527.8	335.91	-292.42	1254.3	338.57
263	1.0917	-44.947	1267.1	335.7	-162.73	1474.3	508.42	-185.9	1472.2	155.71	-144.88	1791.4	330.06	-98.456	1032	469.32	-85.55	1027.4	215.75	NaN	NaN	NaN	-292.25	1053.3	288.11	-170.19	963.73	518.02	-176.59	948.59	160.09	-179.35	1110.8	494.73	-156.83	1098.9	176.8	-305.88	1018.8	332.42	-233.04	723.5	496.01	-198.49	633.57	459.98	-265.59	643.21	473.65	-161.33	714.93	481.18	-283.16	530.11	454.22	-272.77	539.01	326.23	-414.1	334.86	441.38	-385	253.71	415.26	-448.15	267.91	422.74	-350.47	320.46	434.51	-473.97	136.01	389.07	-458.57	145.2	305.08	-551.08	109.58	339.46	-547.89	77.191	309.52	-550.2	77.548	374.17	-379.52	37.376	421.07	-349.58	39.384	299.74	-284.41	43.89	348.96	-40.786	712.74	183.76	24.829	654.05	250.11	-33.326	624.18	205.17	8.3485	745.04	226.24	-17.154	535.46	225.64	4.8672	550.87	347.61	21.913	308.44	238.93	104.86	275.68	234.53	45.882	240.53	256.32	78.289	340.93	223.83	148.5	125.58	250.49	154.72	154.92	338.33	98.906	59.626	300.67	118.35	39.045	335.26	118.58	35.499	273.44	280.96	105.45	228.92	293.43	131.25	344.02	348.78	174.01	286.34	-229.6	1527.4	335.63	-286.71	1253.8	338.35
264	1.0958	-39.199	1266.7	335.34	-157.04	1474	508.1	-180.39	1471.8	155.4	-139.36	1791.1	329.75	-92.566	1031.7	469.12	-79.626	1026.9	215.52	NaN	NaN	NaN	-286.37	1052.8	287.93	-164.49	963.48	517.8	-170.76	948.04	160.04	-173.47	1110.5	494.52	-150.93	1098.4	176.51	-300.01	1018.4	332.26	-227.39	723.24	496.02	-192.72	633.23	460.29	-259.85	642.88	473.7	-155.73	714.67	481.37	-277.5	529.79	454.42	-266.64	538.47	326.49	-410.4	335.85	441.6	-382.2	254.37	415.51	-445.2	269.29	422.97	-347	320.75	434.69	-472.54	137.66	389.32	-456.96	146.65	305.34	-549.8	112.08	339.68	-547.01	79.771	309.65	-549.32	79.962	374.29	-379.24	37.431	421.11	-349.29	39.499	299.75	-284.23	43.716	349	-34.986	712.29	184.12	30.725	653.63	250.41	-27.598	623.77	205.7	14.421	744.6	226.3	-11.538	534.96	226.1	10.85	550.71	347.86	26.016	307.71	239.76	108.7	274.33	235.45	49.459	239.66	257.24	82.63	339.75	224.66	151.18	124.29	251.5	157.55	153.43	339.38	101.04	59.597	301.56	119.87	38.615	336.04	120.15	35.35	274.22	283.41	102.84	230	295.92	128.24	345.17	351.85	170.43	287.61	-224.04	1527	335.33	-280.97	1253.3	338.13
